<svg width="24" height="24" viewBox="0 0 24 24" fill="none" xmlns="http://www.w3.org/2000/svg">
<path d="M15.8515 21C16.1068 21.0015 16.3568 20.9269 16.5696 20.7857C16.7824 20.6445 16.9484 20.4432 17.0463 20.2074C17.1442 19.9715 17.1697 19.7119 17.1194 19.4615C17.0692 19.2111 16.9456 18.9814 16.7643 18.8016L9.95045 12.0006L16.7643 5.19965C17.0063 4.95756 17.1423 4.62922 17.1423 4.28686C17.1423 4.11733 17.109 3.94947 17.0441 3.79286C16.9792 3.63624 16.8841 3.49393 16.7643 3.37406C16.6444 3.25419 16.5021 3.15911 16.3455 3.09423C16.1888 3.02936 16.021 2.99597 15.8515 2.99597C15.5091 2.99597 15.1808 3.13198 14.9387 3.37406L7.22492 11.0878C6.98548 11.3287 6.85107 11.6545 6.85107 11.9942C6.85107 12.3338 6.98548 12.6597 7.22492 12.9005L14.9387 20.6143C15.0577 20.7358 15.1997 20.8324 15.3564 20.8986C15.5131 20.9648 15.6814 20.9993 15.8515 21Z" fill="black"/>
</svg>
